<mxfile host="app.diagrams.net" modified="2024-02-22T08:12:12.172Z" agent="Mozilla/5.0 (iPhone; CPU iPhone OS 16_6_1 like Mac OS X) AppleWebKit/605.1.15 (KHTML, like Gecko) Version/16.6 Mobile/15E148 Safari/604.1" version="23.1.5" etag="FQRagVsipv-0c5SZNzVK" type="github">
  <diagram name="Page-1" id="S476y6eswHGK8B94brI0">
    <mxGraphModel>
      <root>
        <mxCell id="0" />
        <mxCell id="1" parent="0" />
      </root>
    </mxGraphModel>
  </diagram>
</mxfile>
